<svg xmlns="http://www.w3.org/2000/svg" xml:space="preserve" id="Layer_1" x="0" y="0" style="enable-background:new 0 0 1024 1024" version="1.1" viewBox="0 0 1024 1024"><style>.st0{fill:#fff}</style><path d="M813.6 834.2c-.5-13.5-1.9-26.8-4.2-40.1-4.6-27-12.8-53-24.5-77.8-20.5-43.3-49.5-79.9-86.8-109.9-29.4-23.6-62-41.2-97.8-53-2.2-.7-4.5-1.5-7-2.3.6-.3.9-.5 1.2-.7 16.1-7.9 30.9-17.8 44.5-29.5 19.7-17.1 35.7-37.1 47.8-60.3 17-32.6 24.6-67.3 22.8-104.1-.5-11.1-1.9-22.1-4.3-33-8.2-37.6-25.7-70.4-52.2-98.3-11.5-12.2-24.5-22.7-38.6-31.7-30.2-19.2-63.3-29.9-99-32.3-9.9-.7-19.8-.6-29.7.2-11.1.8-22.1 2.5-32.9 5.1-36.1 8.7-67.7 25.7-94.8 51.1-17.6 16.6-32 35.6-42.8 57.3-16 31.9-23.1 65.7-21.4 101.3.5 9.8 1.6 19.5 3.5 29.1 7.4 37.8 24.3 70.9 50.3 99.3 17.4 19 37.8 34.2 60.9 45.7.5.2 1.1.3 1.4 1-7.3 2.3-14.6 4.7-21.7 7.5-7.2 2.8-14.3 5.8-21.2 9.1-39.5 18.8-73.6 44.7-102.3 77.7-15.4 17.7-28.5 36.8-39.5 57.5-13.6 25.6-23.3 52.5-29.2 80.9-2.6 12.5-4.4 25-5.3 37.7-.3 4.8-.7 9.6-.9 14.5-.1 4.4-.6 8.9.2 13.3 1.5 8.5 9.6 14.5 18.6 13.8 8.5-.7 15.4-7.9 15.7-16.3.2-5.6.3-11.3.6-16.9.5-8.4 1.3-16.8 2.6-25 2.6-16.8 6.7-33.2 12.4-49.3 13.1-36.8 33.1-69.2 60-97.5 17.9-18.8 38-34.7 60.3-47.8 19.2-11.3 39.4-20.1 60.8-26.5 15.1-4.5 30.4-7.8 46-9.7 10.1-1.2 20.1-2.1 30.3-2 .7 0 1.3-.2 1.9-.1 3.8.1 5.4 0 5.9 0 .4 0 .9.1 1.3.2 3.6 0 7.1.1 10.7.3 11.9.6 23.7 2 35.4 4.2 24.5 4.4 47.9 12 70.3 22.8 36.7 17.7 68.1 42.2 94.1 73.6 22.6 27.3 39.2 58 49.9 91.8 5.6 17.7 9.2 35.7 11.1 54.1.9 9.1 1.2 18.3 1.4 27.4.2 9.6 7.8 16.9 17.6 16.9 9.3-.1 17-7.7 17-17.1-.2-4.2-.2-8.2-.4-12.2zm-338-298.8c-18.4-2.6-35.8-8.3-52.3-16.5-7.1-3.5-13.9-7.7-20.5-12.2-15.2-10.5-28.4-23-39.5-37.6-12-15.7-21-33-26.9-51.9-4.5-14.3-7-28.9-7.7-43.8-.5-10 0-19.9 1.4-29.8 2.9-20.8 9.3-40.5 19.5-58.9s23.3-34.5 39.4-48.1c14.2-12 29.9-21.5 47.1-28.5 18.3-7.4 37.3-11.5 56.9-12.5 7.5-.4 15.1-.3 22.6.3 8.2.7 16.2 1.9 24.2 3.7 17.6 3.9 34.3 10.4 49.8 19.5 14 8.2 26.6 18.1 37.8 29.9 6.7 7 12.8 14.5 18.2 22.5 9.6 14.1 16.8 29.3 21.8 45.7 4.2 13.9 6.6 28.1 7.2 42.6.3 7 0 14-.6 21-.8 8.9-2.2 17.6-4.3 26.2-3.8 15.4-9.6 29.9-17.5 43.6-10 17.4-22.7 32.6-38 45.5-11.6 9.8-24.2 17.9-38 24.4-14 6.6-28.7 11.3-44 14-9.8 1.7-19.6 2.5-29.5 2.8" class="st0"/><path d="M207.1 877.8c-15.3 0-28.9-11-31.6-25.9-.9-5.1-.7-9.6-.5-13.6.2-6.5.5-10.3.7-14.1l.2-3.7c.9-13 2.8-26.3 5.6-39.6 6.1-29.5 16.4-58.1 30.6-84.8 11.6-21.7 25.5-42 41.4-60.3 29.8-34.3 65.9-61.7 107.1-81.3 4.9-2.4 10-4.6 15.1-6.7-14.5-9.8-27.4-20.9-38.9-33.5-27.9-30.5-46-66.3-53.9-106.3-2-10.4-3.2-20.7-3.7-31.2-1.8-38 5.9-74.5 22.9-108.6 11.5-23 27-43.6 45.9-61.4 28.8-27 62.9-45.4 101.4-54.7 11.1-2.7 22.9-4.5 35.2-5.4 10.6-.8 21.2-.9 31.8-.2 38.2 2.6 73.9 14.2 105.9 34.6 15.2 9.7 29.1 21.1 41.4 34 28.4 29.9 47.2 65.4 55.9 105.3 2.5 11.3 4 23.2 4.6 35.4 1.8 39.2-6.4 76.7-24.5 111.5-12.7 24.4-29.9 46.1-51.2 64.6-6.6 5.8-13.6 11.1-20.9 16.1 29.5 12.2 55.8 27.8 79.7 47 39.1 31.4 69.7 70.1 90.9 115.1 12.2 25.9 20.8 53.3 25.6 81.5 2.4 14.1 3.9 28.2 4.4 42.1.1 4.1.2 8.3.2 12.4 0 17.4-14.2 31.6-31.6 31.7-16.8.7-32-13.6-32.3-31.2-.2-8.8-.4-17.5-1.3-26.2-1.8-17.5-5.3-34.8-10.5-51.2-10.1-31.9-26-61.1-47.2-86.9-24.5-29.5-54.5-53-89.2-69.8-21.1-10.2-43.5-17.4-66.6-21.6-11.1-2-22.3-3.4-33.6-4l-10-.3c.7-.3-1-.1-5-.1h-2.4c-11.2.1-20.7.9-30.2 2-14.5 1.8-29.2 4.9-43.6 9.2-20.1 6-39.4 14.5-57.6 25.1-21.1 12.4-40.3 27.6-57.1 45.3-25.4 26.7-44.6 57.8-56.9 92.3-5.3 14.9-9.2 30.5-11.7 46.6-1.2 7.9-2 15.7-2.5 23.6l-.5 16.6c-.5 15.8-13.3 29.2-29.1 30.4-.7.2-1.5.2-2.4.2zm304.7-320.2c1.6 0 3.7.1 5.8.2 12.6.7 25 2.1 37.3 4.4 25.7 4.7 50.6 12.7 74.1 24 38.5 18.5 71.8 44.6 99 77.5 23.7 28.6 41.4 61.2 52.6 96.7 5.8 18.3 9.7 37.5 11.7 57 1 9.5 1.3 19.1 1.5 28.6 0 1.6 1.1 2.5 2.7 2.5 2.6-6.2 2.5-10 2.3-13.8-.5-12.5-1.8-25.4-4-38.2-4.3-25.6-12.2-50.5-23.2-74-19.3-40.9-47.2-76.2-82.8-104.8-27.8-22.3-59.2-39.3-93.2-50.5l-38.8-12.9 29.3-16.2c16.7-8.3 30.6-17.6 43.1-28.4 18.4-16 33.4-34.9 44.4-56 15.6-30.1 22.8-62.6 21.2-96.6-.5-10.5-1.8-20.8-3.9-30.5-7.5-34.6-23.9-65.3-48.5-91.4-10.6-11.1-22.7-21-35.9-29.4-27.8-17.7-58.8-27.8-92.2-30-9.1-.6-18.4-.5-27.6.2-10.8.8-20.8 2.4-30.5 4.7-33.5 8.1-63.2 24.1-88.2 47.5-16.4 15.4-29.8 33.3-39.7 53.2-14.8 29.5-21.5 61.2-19.9 94.1.4 9.1 1.5 18.1 3.2 27 6.8 34.7 22.5 65.7 46.7 92.2 16 17.4 35 31.7 56.6 42.5l6.7 2.4 6.8 21.2-14.2 4.5c-7 2.2-14 4.5-20.8 7.2-6.9 2.7-13.6 5.5-20.2 8.7-37.6 17.9-70.4 42.8-97.6 74.1-14.5 16.6-27.1 35.1-37.6 54.8-12.8 24.2-22.2 50.1-27.8 77-2.5 12.1-4.2 24.1-5.1 35.8l-.3 3.6c-.2 3.4-.5 6.8-.6 10.2-.2 5.9-.3 8.5 0 10.3h19.9l-14.6-.5.1-4.5c.1-4.3.2-8.5.5-12.8.5-8.9 1.4-17.7 2.7-26.4 2.7-17.8 7.1-35.3 13-51.9 13.7-38.4 35-73 63.2-102.7 18.7-19.6 40-36.6 63.5-50.3 20.1-11.8 41.7-21.2 64-27.9 16-4.8 32.2-8.2 48.5-10.2 10.7-1.3 21.8-1.3 32.1-2.1l9.2-.6 2.7.9c.6-.4 1.5-.4 2.8-.4zm-12.5-5.4-6.5-.2c-3.9.4-9.9-.5-15.2-1.4l-4.1-.6c-19.4-2.8-38.5-8.8-56.8-17.9-7.8-3.9-15.1-8.3-22.3-13.3-16.5-11.4-30.9-25.1-42.8-40.8-13-17.1-22.8-36.1-29.2-56.3-4.8-15.2-7.6-31.2-8.4-47.5-.5-10.6 0-21.5 1.5-32.5 3.1-22.8 10.3-44.3 21.1-64 11.1-20 25.5-37.5 42.8-52.2 15.4-13 32.6-23.4 51-30.9 19.5-7.9 40.3-12.5 61.7-13.6 8.3-.4 16.5-.3 24.7.4 8.8.8 17.5 2 26.1 3.9 19.2 4.3 37.4 11.4 54 21.2 15.3 9 29.1 19.9 41 32.4 7.3 7.7 14 15.9 19.7 24.4 10.4 15.4 18.3 32 23.7 49.6 4.5 14.8 7.1 30.3 7.8 46.2.3 7.6 0 15.3-.6 22.9-.8 9.6-2.3 19.1-4.7 28.5-4.2 16.8-10.6 32.7-19.1 47.4-10.9 18.9-24.8 35.5-41.2 49.4-12.7 10.7-26.5 19.6-41.1 26.5-15.2 7.2-31.3 12.3-47.7 15.2h-.1c-10.5 1.9-21 2.7-31.6 3l-3.7.2zm-.8-29.3 3.7.1c9.3-.4 18.5-1.1 27.6-2.7 13.9-2.5 27.4-6.8 40.3-12.9 12.3-5.8 24-13.4 34.8-22.4 13.9-11.7 25.5-25.7 34.8-41.6 7.1-12.3 12.5-25.7 16-39.8 2-7.9 3.2-15.8 3.9-23.9.5-6.4.8-12.8.5-19.1-.6-13.5-2.8-26.6-6.6-39-4.5-14.8-11.2-28.8-19.9-41.7-5-7.4-10.6-14.2-16.7-20.7-10.1-10.6-21.7-19.8-34.6-27.4-14.1-8.3-29.4-14.3-45.6-17.9-7.4-1.7-14.8-2.7-22.3-3.4-6.8-.7-13.8-.7-20.6-.3-18.1.9-35.6 4.8-52.1 11.5-15.6 6.3-30.1 15.1-43.2 26.1-14.6 12.3-26.7 27.1-36 44-9.1 16.5-15.1 34.6-17.8 53.8-1.3 9.2-1.7 18.4-1.3 27.1.7 13.8 3 27.2 7 40 5.4 17 13.7 33 24.6 47.5 10 13.2 22.2 24.8 36.1 34.4 6 4.2 12.2 8 18.7 11.2 15.5 7.7 31.7 12.8 47.9 15.2l4.7.7c4.4.7 8.4 1.4 11.7 1.1" class="st0"/></svg>