<svg xmlns="http://www.w3.org/2000/svg" xml:space="preserve" style="enable-background:new 0 0 1024 1024" viewBox="0 0 1024 1024"><path d="M848.7 759c-54.5-41-85.8-103.5-85.8-171.7v-143c0-119.8-80.8-221.1-190.7-252.3v-33.8c0-39.4-32.1-71.5-71.5-71.5s-71.5 32.1-71.5 71.5V192c-109.9 31.2-190.7 132.5-190.7 252.3v143c0 68.1-31.3 130.7-85.8 171.7a23.94 23.94 0 0 0-8.3 26.6c3.2 9.7 12.4 16.3 22.6 16.3h216.9c-1.6 7.8-2.4 15.8-2.4 23.8 0 65.7 53.5 119.2 119.2 119.2s119.2-53.5 119.2-119.2c0-8-.8-16-2.4-23.8h216.9c10.2 0 19.3-6.6 22.6-16.3 3.2-9.7-.2-20.4-8.3-26.6zM476.8 158.3c0-13.2 10.7-23.8 23.8-23.8 13.2 0 23.8 10.7 23.8 23.8v24.9c-7.9-.7-15.8-1.1-23.8-1.1s-16 .4-23.8 1.1v-24.9zm95.4 667.4c0 39.4-32.1 71.5-71.5 71.5s-71.5-32.1-71.5-71.5c0-8.2 1.4-16.2 4.1-23.8h134.8c2.6 7.6 4.1 15.7 4.1 23.8zm-346-71.5c12.2-14.7 22.7-30.8 31.4-47.7 19-37.1 28.6-77.2 28.6-119.1v-143c0-118.3 96.2-214.5 214.5-214.5s214.5 96.3 214.5 214.5v143c0 42 9.6 82 28.6 119.1 8.7 17 19.3 33 31.4 47.7h-549z" style="fill:#fff"/></svg>