<svg xmlns="http://www.w3.org/2000/svg" xml:space="preserve" style="enable-background:new 0 0 1024 1024" viewBox="0 0 1024 1024"><path d="M809.2 412.2c-25.1-26.6-58.4-41.3-93.9-41.3H306.6c-35.5 0-68.8 14.7-93.8 41.2-25.2 26.6-39.1 62-39.1 99.9v271.4c0 37.8 13.9 73.3 38.9 99.8 25 26.6 58.4 41.4 93.9 41.4h408.6c35.5 0 69-14.7 93.9-41.4 25.1-26.6 38.8-62 38.8-99.8V512c.2-37.8-13.6-73.2-38.6-99.8zm-22.4 371.2c0 20.4-7.4 39.5-20.9 53.8-13.5 14.5-31.5 22.3-50.7 22.3H306.6c-19.1 0-37.2-7.9-50.8-22.4-13.5-14.3-20.9-33.4-20.9-53.8V511.9c0-20.3 7.4-39.5 21-53.8 13.5-14.3 31.5-22.3 50.7-22.3h408.6c19.1 0 37.2 7.9 50.7 22.3 13.5 14.3 20.9 33.5 20.9 53.8v271.5zM511 164.5c95.8 0 173.7 82.8 173.7 184.6h61.2c0-137.6-105.4-249.6-234.9-249.6s-234.9 112-234.9 249.6h61.2c-.1-101.8 77.8-184.6 173.7-184.6zm-30.6 564.6h61.2V620.5h-61.2v108.6z" style="fill:#fff"/></svg>