<svg xmlns="http://www.w3.org/2000/svg" xml:space="preserve" id="Layer_1" x="0" y="0" style="enable-background:new 0 0 1024 1024" version="1.1" viewBox="0 0 1024 1024"><style>.st0{fill:#fff}</style><path d="M512 985.3c-63.9 0-125.9-12.5-184.2-37.2-56.4-23.8-107-58-150.4-101.4-43.5-43.5-77.6-94.1-101.4-150.4C51.3 637.9 38.7 575.9 38.7 512s12.5-125.9 37.2-184.2c23.8-56.4 58-107 101.4-150.4S271.4 99.8 327.7 76C386.1 51.3 448.1 38.7 512 38.7s125.9 12.5 184.2 37.2c56.4 23.8 107 58 150.4 101.4 43.5 43.5 77.6 94.1 101.4 150.4 24.7 58.4 37.2 120.4 37.2 184.2S972.7 637.8 948 696.1c-23.8 56.4-58 107-101.4 150.4-43.5 43.5-94.1 77.6-150.4 101.4-58.3 24.8-120.3 37.4-184.2 37.4zm0-876.6c-222.4 0-403.3 180.9-403.3 403.3S289.6 915.3 512 915.3 915.3 734.4 915.3 512 734.4 108.7 512 108.7z" class="st0"/><path d="M283 477.1h458v69.8H283z" class="st0"/><path d="M546.9 283v458h-69.8V283z" class="st0"/></svg>