<?xml version="1.0" encoding="utf-8"?>
<!-- Generator: Adobe Illustrator 28.0.0, SVG Export Plug-In . SVG Version: 6.00 Build 0)  -->
<svg version="1.1" id="레이어_1" xmlns="http://www.w3.org/2000/svg" xmlns:xlink="http://www.w3.org/1999/xlink" x="0px"
	 y="0px" viewBox="0 0 512 512" style="enable-background:new 0 0 512 512;" xml:space="preserve">
<style type="text/css">
	.st0{fill:#FFFFFF;}
</style>
<g id="Layer_36">
	<g>
		<path class="st0" d="M492,7.9H20c-6.6,0-12,5.4-12,12v472c0,6.6,5.4,12,12,12h472c6.6,0,12-5.4,12-12v-472
			C504,13.3,498.6,7.9,492,7.9L492,7.9z M480,479.9H32v-448h448V479.9z"/>
		<path class="st0" d="M151.8,372.1c3.1,0,6.1-1.2,8.5-3.5l62.9-62.9v30c0,6.6,5.4,12,12,12s12-5.4,12-12v-59c0-1.5-0.3-3-0.8-4.4
			c0-0.1,0-0.1-0.1-0.2c-1.2-3-3.6-5.3-6.5-6.5c-0.1,0-0.1,0-0.2-0.1c-1.4-0.5-2.8-0.8-4.4-0.8h-59c-6.6,0-12,5.4-12,12
			s5.4,12,12,12h30l-62.9,62.9c-4.7,4.7-4.7,12.3,0,17C145.7,370.9,148.8,372.1,151.8,372.1L151.8,372.1z"/>
		<path class="st0" d="M265.2,237.4c0.1,0.7,0.4,1.3,0.6,2c0,0.1,0,0.1,0.1,0.2c1.2,3,3.6,5.3,6.5,6.5c0.1,0,0.1,0,0.2,0.1
			c1.4,0.5,2.8,0.8,4.4,0.8h59c6.6,0,12-5.4,12-12s-5.4-12-12-12h-30l62.9-62.9c4.7-4.7,4.7-12.3,0-17s-12.3-4.7-17,0L288.9,206v-30
			c0-6.6-5.4-12-12-12c-6.6,0-12,5.4-12,12l0,59C264.9,235.8,265,236.7,265.2,237.4L265.2,237.4z"/>
	</g>
</g>
</svg>
