<svg xmlns="http://www.w3.org/2000/svg" xml:space="preserve" id="Layer_1" x="0" y="0" style="enable-background:new 0 0 1024 1024" version="1.1" viewBox="0 0 1024 1024"><style>.st0{fill:#fff}</style><path d="M512 64C321 64 157.9 183.6 93.5 352h69.3c18.8-41 44.9-78.7 77.7-111.5C313 167.9 409.4 128 512 128s199 39.9 271.5 112.5C856.1 313 896 409.4 896 512s-39.9 199-112.5 271.5C711 856.1 614.5 896 512 896c-102.6 0-199-39.9-271.5-112.5-32.8-32.8-58.9-70.6-77.7-111.5H93.4C157.9 840.4 320.9 960 512 960c247.4 0 448-200.6 448-448S759.4 64 512 64z" class="st0"/><path d="M413.7 647.8 459 693l181-181-181-181-45.3 45.3L517.5 480H64v64h453.5L413.7 647.8z" class="st0"/></svg>